HIERARCHY
ROOT Root
{
  OFFSET 0.0 0.0 0.0
  CHANNELS 6 Xposition Yposition Zposition Zrotation Yrotation Xrotation
  JOINT Hips
  {
    OFFSET 0.0 100.0 0.0
    CHANNELS 6 Xposition Yposition Zposition Zrotation Yrotation Xrotation
    JOINT Spine1
    {
      OFFSET 5.003913 -0.037094 -0.013727
      CHANNELS 3 Zrotation Yrotation Xrotation
      JOINT Spine2
      {
        OFFSET 7.125363 -1e-06 0.0
        CHANNELS 3 Zrotation Yrotation Xrotation
        JOINT Chest
        {
          OFFSET 7.594027 1e-06 0.0
          CHANNELS 3 Zrotation Yrotation Xrotation
          JOINT Neck1
          {
            OFFSET 26.313086 -0.460272 -0.181672
            CHANNELS 3 Zrotation Yrotation Xrotation
            JOINT Neck2
            {
              OFFSET 8.045911 0.0 0.0
              CHANNELS 3 Zrotation Yrotation Xrotation
              JOINT Head
              {
                OFFSET 6.432774 0.0 0.0
                CHANNELS 3 Zrotation Yrotation Xrotation
                JOINT HeadEnd
                {
                  OFFSET 16.169773 0.06451 0.00362
                  CHANNELS 3 Zrotation Yrotation Xrotation
                }
                JOINT Jaw
                {
                  OFFSET 0.108741 3.12938 0.002639
                  CHANNELS 3 Zrotation Yrotation Xrotation
                }
                JOINT LeftEye
                {
                  OFFSET 4.45173 8.166359 3.206392
                  CHANNELS 3 Zrotation Yrotation Xrotation
                }
                JOINT RightEye
                {
                  OFFSET 4.436895 8.135758 -3.222429
                  CHANNELS 3 Zrotation Yrotation Xrotation
                }
              }
            }
          }
          JOINT LeftShoulder
          {
            OFFSET 23.218927 5.195579 1.621656
            CHANNELS 3 Zrotation Yrotation Xrotation
            JOINT LeftArm
            {
              OFFSET 15.902118 2e-06 -2e-06
              CHANNELS 3 Zrotation Yrotation Xrotation
              JOINT LeftForeArm
              {
                OFFSET 28.739307 0.0 -1e-06
                CHANNELS 3 Zrotation Yrotation Xrotation
                JOINT LeftHand
                {
                  OFFSET 27.093981 -4e-06 0.0
                  CHANNELS 3 Zrotation Yrotation Xrotation
                  JOINT LeftHandThumb1
                  {
                    OFFSET 2.276781 3.380274 0.83384
                    CHANNELS 3 Zrotation Yrotation Xrotation
                    JOINT LeftHandThumb2
                    {
                      OFFSET 4.705309 -1e-06 -1e-06
                      CHANNELS 3 Zrotation Yrotation Xrotation
                      JOINT LeftHandThumb3
                      {
                        OFFSET 2.798515 0.0 3e-06
                        CHANNELS 3 Zrotation Yrotation Xrotation
                        JOINT LeftHandThumbEnd
                        {
                          OFFSET 3.180793 4e-06 -4e-06
                          CHANNELS 3 Zrotation Yrotation Xrotation
                        }
                      }
                    }
                  }
                  JOINT LeftHandIndex1
                  {
                    OFFSET 3.247786 2.352677 0.137192
                    CHANNELS 3 Zrotation Yrotation Xrotation
                    JOINT LeftHandIndex2
                    {
                      OFFSET 6.367095 1e-06 0.0
                      CHANNELS 3 Zrotation Yrotation Xrotation
                      JOINT LeftHandIndex3
                      {
                        OFFSET 3.662364 0.0 0.0
                        CHANNELS 3 Zrotation Yrotation Xrotation
                        JOINT LeftHandIndex4
                        {
                          OFFSET 2.329242 4e-06 -4e-06
                          CHANNELS 3 Zrotation Yrotation Xrotation
                          JOINT LeftHandIndexEnd
                          {
                            OFFSET 2.767823 1e-06 0.0
                            CHANNELS 3 Zrotation Yrotation Xrotation
                          }
                        }
                      }
                    }
                  }
                  JOINT LeftHandMiddle1
                  {
                    OFFSET 3.163612 0.945023 -0.406112
                    CHANNELS 3 Zrotation Yrotation Xrotation
                    JOINT LeftHandMiddle2
                    {
                      OFFSET 6.276789 3e-06 0.0
                      CHANNELS 3 Zrotation Yrotation Xrotation
                      JOINT LeftHandMiddle3
                      {
                        OFFSET 4.35652 -1e-06 4e-06
                        CHANNELS 3 Zrotation Yrotation Xrotation
                        JOINT LeftHandMiddle4
                        {
                          OFFSET 2.996877 0.0 8e-06
                          CHANNELS 3 Zrotation Yrotation Xrotation
                          JOINT LeftHandMiddleEnd
                          {
                            OFFSET 2.323256 3e-06 -4e-06
                            CHANNELS 3 Zrotation Yrotation Xrotation
                          }
                        }
                      }
                    }
                  }
                  JOINT LeftHandRing1
                  {
                    OFFSET 2.882606 -0.309162 0.107445
                    CHANNELS 3 Zrotation Yrotation Xrotation
                    JOINT LeftHandRing2
                    {
                      OFFSET 6.033198 0.0 4e-06
                      CHANNELS 3 Zrotation Yrotation Xrotation
                      JOINT LeftHandRing3
                      {
                        OFFSET 4.350578 3e-06 0.0
                        CHANNELS 3 Zrotation Yrotation Xrotation
                        JOINT LeftHandRing4
                        {
                          OFFSET 2.651321 2e-06 -7e-06
                          CHANNELS 3 Zrotation Yrotation Xrotation
                          JOINT LeftHandRingEnd
                          {
                            OFFSET 1.937663 1e-06 -4e-06
                            CHANNELS 3 Zrotation Yrotation Xrotation
                          }
                        }
                      }
                    }
                  }
                  JOINT LeftHandPinky1
                  {
                    OFFSET 2.865315 -1.525436 0.575687
                    CHANNELS 3 Zrotation Yrotation Xrotation
                    JOINT LeftHandPinky2
                    {
                      OFFSET 5.54936 1e-06 -8e-06
                      CHANNELS 3 Zrotation Yrotation Xrotation
                      JOINT LeftHandPinky3
                      {
                        OFFSET 3.070974 0.0 -4e-06
                        CHANNELS 3 Zrotation Yrotation Xrotation
                        JOINT LeftHandPinky4
                        {
                          OFFSET 1.549672 1e-06 0.0
                          CHANNELS 3 Zrotation Yrotation Xrotation
                          JOINT LeftHandPinkyEnd
                          {
                            OFFSET 1.952123 0.0 0.0
                            CHANNELS 3 Zrotation Yrotation Xrotation
                          }
                        }
                      }
                    }
                  }
                }
              }
            }
          }
          JOINT RightShoulder
          {
            OFFSET 23.161716 5.296122 -1.380114
            CHANNELS 3 Zrotation Yrotation Xrotation
            JOINT RightArm
            {
              OFFSET -16.027195 -2e-06 1.1e-05
              CHANNELS 3 Zrotation Yrotation Xrotation
              JOINT RightForeArm
              {
                OFFSET -28.736639 4e-06 2e-06
                CHANNELS 3 Zrotation Yrotation Xrotation
                JOINT RightHand
                {
                  OFFSET -27.133619 6e-06 0.0
                  CHANNELS 3 Zrotation Yrotation Xrotation
                  JOINT RightHandThumb1
                  {
                    OFFSET -2.274328 -3.351035 -0.83067
                    CHANNELS 3 Zrotation Yrotation Xrotation
                    JOINT RightHandThumb2
                    {
                      OFFSET -4.703594 -3e-06 2e-06
                      CHANNELS 3 Zrotation Yrotation Xrotation
                      JOINT RightHandThumb3
                      {
                        OFFSET -2.794935 -4e-06 -3e-06
                        CHANNELS 3 Zrotation Yrotation Xrotation
                        JOINT RightHandThumbEnd
                        {
                          OFFSET -3.183852 4e-06 1e-06
                          CHANNELS 3 Zrotation Yrotation Xrotation
                        }
                      }
                    }
                  }
                  JOINT RightHandIndex1
                  {
                    OFFSET -3.253496 -2.33755 -0.127667
                    CHANNELS 3 Zrotation Yrotation Xrotation
                    JOINT RightHandIndex2
                    {
                      OFFSET -6.344434 0.0 0.0
                      CHANNELS 3 Zrotation Yrotation Xrotation
                      JOINT RightHandIndex3
                      {
                        OFFSET -3.654871 0.0 -8e-06
                        CHANNELS 3 Zrotation Yrotation Xrotation
                        JOINT RightHandIndex4
                        {
                          OFFSET -2.327586 -1e-06 0.0
                          CHANNELS 3 Zrotation Yrotation Xrotation
                          JOINT RightHandIndexEnd
                          {
                            OFFSET -2.770001 3e-06 8e-06
                            CHANNELS 3 Zrotation Yrotation Xrotation
                          }
                        }
                      }
                    }
                  }
                  JOINT RightHandMiddle1
                  {
                    OFFSET -3.168223 -0.944764 0.411762
                    CHANNELS 3 Zrotation Yrotation Xrotation
                    JOINT RightHandMiddle2
                    {
                      OFFSET -6.266691 -1e-06 -4e-06
                      CHANNELS 3 Zrotation Yrotation Xrotation
                      JOINT RightHandMiddle3
                      {
                        OFFSET -4.348901 0.0 0.0
                        CHANNELS 3 Zrotation Yrotation Xrotation
                        JOINT RightHandMiddle4
                        {
                          OFFSET -3.00024 2e-06 -4e-06
                          CHANNELS 3 Zrotation Yrotation Xrotation
                          JOINT RightHandMiddleEnd
                          {
                            OFFSET -2.321477 -4e-06 -4e-06
                            CHANNELS 3 Zrotation Yrotation Xrotation
                          }
                        }
                      }
                    }
                  }
                  JOINT RightHandRing1
                  {
                    OFFSET -2.885654 0.293261 -0.119232
                    CHANNELS 3 Zrotation Yrotation Xrotation
                    JOINT RightHandRing2
                    {
                      OFFSET -6.032835 -1e-06 -4e-06
                      CHANNELS 3 Zrotation Yrotation Xrotation
                      JOINT RightHandRing3
                      {
                        OFFSET -4.33881 0.0 -4e-06
                        CHANNELS 3 Zrotation Yrotation Xrotation
                        JOINT RightHandRing4
                        {
                          OFFSET -2.654903 -4e-06 -4e-06
                          CHANNELS 3 Zrotation Yrotation Xrotation
                          JOINT RightHandRingEnd
                          {
                            OFFSET -1.935122 0.0 4e-06
                            CHANNELS 3 Zrotation Yrotation Xrotation
                          }
                        }
                      }
                    }
                  }
                  JOINT RightHandPinky1
                  {
                    OFFSET -2.866241 1.503904 -0.60527
                    CHANNELS 3 Zrotation Yrotation Xrotation
                    JOINT RightHandPinky2
                    {
                      OFFSET -5.553177 -2e-06 0.0
                      CHANNELS 3 Zrotation Yrotation Xrotation
                      JOINT RightHandPinky3
                      {
                        OFFSET -3.062664 -1e-06 -4e-06
                        CHANNELS 3 Zrotation Yrotation Xrotation
                        JOINT RightHandPinky4
                        {
                          OFFSET -1.546529 2e-06 4e-06
                          CHANNELS 3 Zrotation Yrotation Xrotation
                          JOINT RightHandPinkyEnd
                          {
                            OFFSET -1.952341 0.0 -4e-06
                            CHANNELS 3 Zrotation Yrotation Xrotation
                          }
                        }
                      }
                    }
                  }
                }
              }
            }
          }
        }
      }
    }
    JOINT LeftLeg
    {
      OFFSET -8.443107 2.567604 10.043214
      CHANNELS 3 Zrotation Yrotation Xrotation
      JOINT LeftShin
      {
        OFFSET 43.229198 1e-06 -1e-06
        CHANNELS 3 Zrotation Yrotation Xrotation
        JOINT LeftFoot
        {
          OFFSET 42.298611 1e-06 1e-06
          CHANNELS 3 Zrotation Yrotation Xrotation
          JOINT LeftToeBase
          {
            OFFSET 14.165858 1e-06 0.0
            CHANNELS 3 Zrotation Yrotation Xrotation
            JOINT LeftToeEnd
            {
              OFFSET 6.7141 -0.234461 0.0
              CHANNELS 3 Zrotation Yrotation Xrotation
            }
          }
        }
      }
    }
    JOINT RightLeg
    {
      OFFSET -8.303923 2.592729 -10.047278
      CHANNELS 3 Zrotation Yrotation Xrotation
      JOINT RightShin
      {
        OFFSET -43.369682 0.0 1e-06
        CHANNELS 3 Zrotation Yrotation Xrotation
        JOINT RightFoot
        {
          OFFSET -42.260784 4e-06 2e-06
          CHANNELS 3 Zrotation Yrotation Xrotation
          JOINT RightToeBase
          {
            OFFSET -14.222245 -2e-06 -1e-06
            CHANNELS 3 Zrotation Yrotation Xrotation
            JOINT RightToeEnd
            {
              OFFSET -6.660062 0.232574 -2e-06
              CHANNELS 3 Zrotation Yrotation Xrotation
            }
          }
        }
      }
    }
  }
}
MOTION
Frames: 5
Frame Time: 0.03333333333333333
0.0 0.0 0.0 0.0 -0.0 0.0 -4.345859 49.206879 -0.330065 95.489899 -47.651005 86.719849 16.23794 -3.214283 0.531749 -4.659964 -1.845134 2.607828 23.246077 -8.54373 -1.926573 25.261753 0.134393 2.92744 -2.638045 -1.46658 4.21603 -25.715498 -2.046572 5.033305 6e-06 -2e-06 0.0 -0.170963 0.008231 0.118664 0.235892 0.075856 0.254538 0.113248 -0.05707 -0.008491 126.240929 -80.416656 -115.043213 66.406891 -13.522909 -29.146952 21.215694 -0.568171 0.060674 51.281197 77.915482 47.705807 17.636633 -26.322733 52.41119 -19.46666 -14.395592 29.410389 -1e-06 -8.774822 -3e-06 14.814269 -17.711237 6.347579 -0.609778 -1.795653 -3.889327 -4.807088 -11.046811 -2.937851 5e-06 -20.976015 0.0 -5.019969 -25.033556 -4.031881 7e-06 1e-06 -1e-06 -10.634535 -5.686969 -3.565589 10.573276 -17.922951 -3.1139 3e-06 -13.821209 1e-06 -0.501777 -31.181505 -4.027014 -10.877516 -58.198524 6.722478 -13.982715 -7.150194 -2.875043 13.772731 -8.401495 -3.218241 0.347734 -34.211555 0.771654 -0.963028 -17.73337 2.621018 0.0 1e-06 -1e-06 -17.346416 -20.095217 -4.201784 21.757559 -1.638377 3.86643 -1e-06 -6.338823 1e-06 -1.697588 -22.59174 -6.194005 0.0 -4e-06 -1e-06 -147.776306 -74.607475 -24.78664 69.81929 7.844428 -41.312172 13.519267 0.252845 -0.292318 -7.086075 61.640923 3.452766 22.182108 -20.375887 49.933308 -16.701813 -16.74353 28.47653 -3e-06 -12.690602 -1e-06 16.911106 -17.651814 2.749492 -0.105919 -1.513855 -4.275881 -5.03904 -5.612871 -2.953556 4e-06 -11.020525 -3e-06 -6.1113 -15.895334 -3.840472 -1e-06 -1e-06 0.0 -10.283367 -5.680287 -4.341838 11.028292 -11.302403 -2.372634 -1.384268 -14.238576 -6.320121 -0.625437 -26.924179 -3.827603 -3.980424 -50.215584 -3.551506 -13.708524 -7.363475 -3.720939 18.14115 -14.052738 -3.242675 6e-06 -18.78727 -2e-06 -0.429712 -8.456044 2.555504 1e-06 -0.0 1e-06 -15.923532 -20.094482 -5.473586 30.41921 -7.190824 1.735924 3e-06 -8.162922 -1e-06 -1.861902 -22.861467 -6.167943 0.0 -3e-06 -1e-06 101.425354 -1.989263 7.117676 128.630447 0.85123 0.567653 -32.849331 17.88102 -0.701631 -3.268602 0.943887 2.722945 -1.000001 0.0 0.0 -29.634802 -2.639401 2.116927 81.591568 -0.565925 -0.097861 -32.2243 18.205898 -2.565208 -1.170222 0.388614 1.799809 -1.000004 1e-06 0.0 
0.0 0.0 0.0 0.0 -0.0 0.0 -3.939496 48.716099 1.498442 95.497612 -47.87328 85.81958 15.880287 -3.232924 0.634322 -4.890819 -1.728126 2.73098 23.12081 -8.649747 -1.776481 25.532076 -0.305021 2.685252 -2.597947 -1.083546 4.368828 -25.760349 -2.083999 5.182711 6e-06 -1e-06 -0.0 -0.176969 0.008547 0.105201 0.215588 0.03698 0.238158 0.135581 -0.018758 -0.023893 130.060303 -80.07225 -118.387589 65.769341 -15.073868 -29.517145 21.379618 -0.604607 0.015967 55.660065 77.300064 52.719429 17.636633 -26.322739 52.411194 -19.466661 -14.395598 29.410385 0.0 -8.774822 -2e-06 15.027031 -17.74439 6.308961 -0.609773 -1.795654 -3.889327 -4.807087 -11.046811 -2.937849 3e-06 -20.976015 4e-06 -5.019975 -25.033556 -4.031874 6e-06 -0.0 -1e-06 -10.634537 -5.686971 -3.565587 10.573277 -17.922947 -3.113897 2e-06 -13.821211 -0.0 -0.501784 -31.181501 -4.02701 -11.08718 -58.633419 7.119024 -13.982715 -7.150197 -2.875041 13.772731 -8.401491 -3.21824 0.347727 -34.211544 0.771661 -0.963031 -17.73337 2.62102 1e-06 0.0 0.0 -17.346416 -20.095215 -4.201779 21.757557 -1.638377 3.866428 -0.0 -6.338823 2e-06 -1.697592 -22.591747 -6.194002 0.0 -4e-06 -3e-06 -148.837219 -75.041588 -23.270147 71.804359 7.10937 -40.397522 13.021146 0.357717 -0.266028 -7.786797 62.369301 2.885297 22.182119 -20.375895 49.933311 -16.701815 -16.743528 28.476534 -1e-06 -12.690603 -1e-06 17.118418 -17.802834 2.701597 -0.105919 -1.513856 -4.275882 -5.039042 -5.612872 -2.953556 4e-06 -11.020526 -1e-06 -6.111302 -15.895334 -3.840472 1e-06 0.0 -0.0 -10.283373 -5.680289 -4.341838 11.028296 -11.302406 -2.372633 -1.38427 -14.238583 -6.320121 -0.625439 -26.924191 -3.8276 -4.078701 -50.650501 -3.517978 -13.708524 -7.363477 -3.720939 18.141151 -14.05274 -3.242675 5e-06 -18.787273 -1e-06 -0.429711 -8.456044 2.555503 0.0 -0.0 1e-06 -15.923539 -20.094484 -5.473583 30.419214 -7.190827 1.735925 4e-06 -8.162922 -1e-06 -1.861903 -22.861469 -6.167942 0.0 -3e-06 -0.0 101.942261 -2.197406 6.633806 127.063652 1.010114 0.640101 -31.603941 17.925095 -0.694224 -3.307556 0.974525 2.660303 -1.000002 0.0 0.0 -27.592154 -2.840467 2.47094 78.963127 -0.691114 0.003413 -31.789385 18.510468 -2.42853 -0.987803 0.390899 1.807443 -1.000002 0.0 -0.0 
0.0 0.0 0.0 0.0 -0.0 0.0 -3.38538 48.394016 3.714885 95.89772 -48.075283 84.913971 15.385675 -3.428351 0.879739 -5.158914 -1.479574 2.620049 22.992594 -8.782482 -1.815938 26.23122 -0.335096 2.439249 -2.521708 -0.796231 4.428445 -25.446991 -2.267232 5.287181 7e-06 -0.0 -0.0 -0.167093 0.045223 0.083327 0.154241 0.037343 0.218609 0.150218 0.049827 -0.052265 133.060806 -79.583351 -120.910957 64.963631 -16.906555 -29.25926 21.614424 -0.601362 0.020526 55.509346 76.795204 53.234463 17.636635 -26.322733 52.411198 -19.466652 -14.395597 29.410389 -1e-06 -8.774822 -2e-06 15.158216 -17.635649 6.091039 -0.609775 -1.795654 -3.889327 -4.807087 -11.046809 -2.93785 3e-06 -20.976013 1e-06 -5.019969 -25.033552 -4.031879 5e-06 -1e-06 -1e-06 -10.634531 -5.686971 -3.565586 10.573273 -17.922945 -3.113899 3e-06 -13.821206 -0.0 -0.501778 -31.181498 -4.027015 -10.759902 -58.664551 6.800181 -13.982711 -7.150198 -2.875043 13.77273 -8.401491 -3.21824 0.34773 -34.211552 0.771658 -0.963029 -17.733368 2.621018 0.0 1e-06 1e-06 -17.346416 -20.095215 -4.20178 21.757557 -1.638372 3.866427 -0.0 -6.338823 1e-06 -1.697588 -22.59174 -6.194006 -1e-06 -5e-06 -2e-06 -150.667862 -75.828705 -20.972794 73.941986 6.00338 -39.751099 12.924959 0.309067 -0.24939 -8.125104 63.377068 3.278146 22.182117 -20.375891 49.933304 -16.701807 -16.743528 28.476526 -1e-06 -12.690601 -3e-06 17.027525 -17.706463 2.738656 -0.10592 -1.513856 -4.275881 -5.03904 -5.612871 -2.953556 4e-06 -11.020527 -1e-06 -6.111298 -15.89533 -3.84047 -0.0 1e-06 0.0 -10.28337 -5.680288 -4.341838 11.028291 -11.302404 -2.372632 -1.38427 -14.238581 -6.32012 -0.625441 -26.924183 -3.827599 -4.25719 -50.74379 -3.260099 -13.708525 -7.363477 -3.720939 18.141146 -14.052739 -3.242673 5e-06 -18.787268 -2e-06 -0.429711 -8.456041 2.555503 0.0 -1e-06 0.0 -15.923536 -20.094484 -5.473582 30.41921 -7.190824 1.735928 2e-06 -8.162925 -0.0 -1.861903 -22.861471 -6.167942 -0.0 -3e-06 -2e-06 103.191132 -2.107226 5.673974 124.854645 1.081654 0.738125 -30.233173 18.167753 -0.509948 -4.043584 1.064499 2.553 -0.999999 0.0 -0.0 -25.026323 -3.540168 2.696543 75.350578 -0.932997 0.070624 -30.896276 19.017141 -2.469897 0.332613 0.314389 1.805418 -1.000002 -0.0 0.0 
0.0 0.0 0.0 0.0 -0.0 0.0 -2.849742 48.048893 6.043858 96.483673 -48.396877 84.860901 14.898366 -3.518107 0.838971 -5.378213 -1.463254 2.357448 22.737036 -8.517444 -2.153785 27.059546 0.014062 2.382346 -2.498059 -0.824181 4.33535 -24.983513 -2.324419 5.237957 6e-06 0.0 -0.0 -0.166662 0.069264 0.058397 0.012031 0.037638 0.175959 0.052428 0.095301 -0.061699 134.258087 -79.110962 -121.819618 64.134033 -19.099335 -28.789791 21.99511 -0.395065 0.012448 53.144428 76.07814 52.114479 17.636625 -26.322733 52.411182 -19.466661 -14.395596 29.410393 -1e-06 -8.774819 -2e-06 15.325227 -17.746368 5.939814 -0.609776 -1.795653 -3.889327 -4.807087 -11.046812 -2.937851 3e-06 -20.976019 0.0 -5.019969 -25.033556 -4.03188 6e-06 0.0 -0.0 -10.634533 -5.68697 -3.565586 10.573272 -17.922951 -3.113901 2e-06 -13.821212 1e-06 -0.501776 -31.181501 -4.027018 -10.762437 -58.69426 6.893917 -13.982711 -7.1502 -2.87504 13.772729 -8.401491 -3.218244 0.347732 -34.211544 0.771656 -0.963028 -17.73337 2.621019 -0.0 0.0 2e-06 -17.346413 -20.095215 -4.201781 21.757555 -1.638374 3.866426 0.0 -6.338824 0.0 -1.697587 -22.591745 -6.194008 -0.0 -4e-06 -2e-06 -153.429657 -76.630997 -18.189537 75.923622 4.183798 -38.787045 13.217674 0.380876 -0.21861 -9.286725 64.703201 3.178411 22.182108 -20.375896 49.933308 -16.701817 -16.74353 28.476534 -2e-06 -12.690601 -0.0 16.99436 -17.629421 2.730055 -0.105919 -1.513857 -4.275881 -5.03904 -5.61287 -2.953556 4e-06 -11.020527 -1e-06 -6.111299 -15.895334 -3.840469 1e-06 1e-06 -0.0 -10.283369 -5.680288 -4.341837 11.028293 -11.302406 -2.372633 -1.384268 -14.238582 -6.32012 -0.625441 -26.924194 -3.827599 -4.255457 -50.675064 -3.329291 -13.708522 -7.363477 -3.720938 18.141146 -14.052739 -3.242676 5e-06 -18.787271 -3e-06 -0.429712 -8.456042 2.555502 0.0 -0.0 -0.0 -15.923536 -20.094486 -5.473582 30.41921 -7.190823 1.735925 2e-06 -8.162929 -2e-06 -1.861902 -22.861471 -6.167943 -1e-06 -2e-06 -2e-06 105.182281 -1.168167 4.803821 123.04187 1.07619 0.786584 -30.562317 18.647276 -0.09758 -4.245245 1.054244 2.512753 -1.000001 -0.0 0.0 -22.177818 -4.77681 1.962556 71.280365 -1.203573 0.198219 -29.901217 19.415455 -2.685238 0.499906 0.302915 1.79716 -1.000004 1e-06 0.0 
0.0 0.0 0.0 0.0 -0.0 0.0 -2.291746 47.810127 8.449638 97.689857 -49.106449 85.194382 14.412594 -3.593969 0.714383 -5.658772 -1.540349 1.906183 22.342131 -8.122223 -2.731471 27.773285 0.564338 2.411657 -2.480548 -0.858245 4.135862 -24.403381 -2.482157 5.157058 6e-06 0.0 1e-06 -0.163203 0.095263 0.032188 -0.155079 0.054731 0.111227 -0.104364 0.130658 -0.049552 134.024017 -78.629768 -121.438034 63.472198 -21.368418 -28.309616 22.855751 -0.281068 0.022096 48.037617 74.857819 48.758923 17.636627 -26.322735 52.411198 -19.466665 -14.3956 29.410393 -0.0 -8.774822 -2e-06 15.481664 -17.961237 5.838687 -0.609777 -1.795654 -3.889329 -4.807088 -11.04681 -2.93785 4e-06 -20.976017 1e-06 -5.01997 -25.03356 -4.031882 6e-06 0.0 -0.0 -10.634535 -5.686972 -3.565587 10.573276 -17.922949 -3.113899 3e-06 -13.821211 -2e-06 -0.501779 -31.181505 -4.027018 -10.82667 -58.756218 7.073078 -13.982712 -7.150198 -2.875041 13.772731 -8.401493 -3.218242 0.347733 -34.211555 0.771653 -0.963028 -17.73337 2.62102 -0.0 0.0 1e-06 -17.346422 -20.095221 -4.201782 21.757565 -1.638373 3.866426 1e-06 -6.338826 -3e-06 -1.697589 -22.591747 -6.194006 -1e-06 -3e-06 -5e-06 -157.821884 -77.470345 -13.965734 77.585228 2.006864 -37.987888 13.722559 0.397529 -0.172382 -10.287241 66.256371 3.098507 22.182114 -20.375895 49.933319 -16.701817 -16.74353 28.476532 -1e-06 -12.690601 -1e-06 16.814552 -17.542326 2.780734 -0.105922 -1.513855 -4.275881 -5.039039 -5.612873 -2.953556 5e-06 -11.020525 -1e-06 -6.1113 -15.89533 -3.840472 1e-06 -1e-06 0.0 -10.283371 -5.680288 -4.341838 11.028295 -11.302404 -2.372634 -1.384268 -14.238581 -6.320121 -0.625437 -26.924185 -3.827602 -4.266896 -50.447769 -3.457279 -13.708526 -7.363475 -3.720939 18.141151 -14.052739 -3.242677 6e-06 -18.787271 -3e-06 -0.429712 -8.456045 2.555503 0.0 1e-06 -0.0 -15.923532 -20.094482 -5.473584 30.41921 -7.190827 1.735925 2e-06 -8.162927 -1e-06 -1.861903 -22.861473 -6.167942 -0.0 -3e-06 -2e-06 107.229706 0.72398 3.85746 121.237389 1.064422 0.762232 -31.387749 19.314041 0.959962 -4.307999 1.002359 2.479342 -1.000002 -1e-06 1e-06 -19.459068 -6.654661 0.253458 66.743744 -1.66836 0.366283 -28.567131 19.497053 -3.209926 0.465749 0.312199 1.798888 -1.000002 0.0 -0.0 
